<svg width="55" height="55" viewBox="0 0 55 55" fill="none" xmlns="http://www.w3.org/2000/svg">
<path d="M27.5 4.5835C14.85 4.5835 4.58333 14.8502 4.58333 27.5002C4.58333 40.1502 14.85 50.4168 27.5 50.4168C40.15 50.4168 50.4167 40.1502 50.4167 27.5002C50.4167 14.8502 40.15 4.5835 27.5 4.5835ZM27.5 13.7502C31.9229 13.7502 35.5208 17.3481 35.5208 21.771C35.5208 26.1939 31.9229 29.7918 27.5 29.7918C23.0771 29.7918 19.4792 26.1939 19.4792 21.771C19.4792 17.3481 23.0771 13.7502 27.5 13.7502ZM27.5 45.8335C22.8479 45.8335 17.3479 43.9543 13.4292 39.2335C17.4438 36.0852 22.3982 34.3743 27.5 34.3743C32.6018 34.3743 37.5562 36.0852 41.5708 39.2335C37.6521 43.9543 32.1521 45.8335 27.5 45.8335Z" fill="#757575"/>
</svg>
